:FULLY-SPECIFIED
:FORCE-ALL-JOINTS-BE-3DOF
:DEGREES
453
root 10.7883 17.446 27.6311 5.3565 0.875052 1.438
lfemur -19.0824 3.6946 -27.5144
ltibia 26.5769 0 0
lfoot -13.0441 4.89839 0
ltoes 0.354659 0 0
rfemur -20.3806 -1.91606 18.1814
rtibia 64.4222 0 0
rfoot -9.5207 -8.31925 0
rtoes -19.0133 0 0
lowerback -5.13993 -1.21517 -2.13557
upperback -1.75335 -1.5363 1.58275
thorax 1.18389 -0.765687 2.73073
lowerneck -20.6436 -3.84297 -11.5691
upperneck 24.3309 -4.55842 10.5003
head 11.9335 -1.80137 5.18016
lclavicle 4.47233e-16 -7.68635e-15 0
lhumerus -25.5348 -12.7475 89.6788
lradius 21.0012 0 0
lwrist -4.03246 0 0
lhand -11.5851 -23.7087 0
lfingers 7.12502 0 0
lthumb 14.4567 5.76623 0
rclavicle 4.47233e-16 -7.68635e-15 0
rhumerus -45.6536 10.7687 -88.4217
rradius 34.6847 0 0
rwrist -13.3764 0 0
rhand -32.9711 -26.8938 0
rfingers 7.12502 0 0
rthumb -6.18626 -56.7804 0
454
root 10.7954 17.4384 27.745 5.21528 1.0828 1.51649
lfemur -18.4541 3.67039 -27.582
ltibia 26.5813 0 0
lfoot -13.4595 4.79218 0
ltoes 0.64772 0 0
rfemur -21.3267 -1.77834 18.1452
rtibia 64.0745 0 0
rfoot -10.7329 -8.37758 0
rtoes -18.6607 0 0
lowerback -5.06495 -1.4264 -2.27508
upperback -1.60544 -1.81334 1.63515
thorax 1.31859 -0.907985 2.84493
lowerneck -20.8457 -3.73386 -11.4425
upperneck 24.3702 -4.4198 10.4807
head 11.9659 -1.72507 5.17631
lclavicle -4.3795e-15 -1.03368e-14 0
lhumerus -24.5208 -13.5237 89.4985
lradius 21.2735 0 0
lwrist -3.58439 0 0
lhand -11.8582 -23.7974 0
lfingers 7.12502 0 0
lthumb 14.1935 5.69603 0
rclavicle -4.3795e-15 -1.03368e-14 0
rhumerus -45.5806 10.8729 -88.3126
rradius 34.9992 0 0
rwrist -13.8591 0 0
rhand -32.556 -27.813 0
rfingers 7.12502 0 0
rthumb -5.78552 -57.7105 0
455
root 10.8025 17.4308 27.8589 5.07406 1.29055 1.59498
lfemur -17.8258 3.64618 -27.6496
ltibia 26.5856 0 0
lfoot -13.8749 4.68596 0
ltoes 0.94078 0 0
rfemur -22.2729 -1.64061 18.1091
rtibia 63.7268 0 0
rfoot -11.9451 -8.43592 0
rtoes -18.3081 0 0
lowerback -4.98998 -1.63763 -2.4146
upperback -1.45753 -2.09038 1.68755
thorax 1.4533 -1.05028 2.95913
lowerneck -21.0478 -3.62475 -11.3159
upperneck 24.4095 -4.28118 10.461
head 11.9983 -1.64877 5.17247
lclavicle -9.20623e-15 -1.29873e-14 0
lhumerus -23.5068 -14.2999 89.3182
lradius 21.5458 0 0
lwrist -3.13632 0 0
lhand -12.1314 -23.886 0
lfingers 7.12502 0 0
lthumb 13.9303 5.62582 0
rclavicle -9.20623e-15 -1.29873e-14 0
rhumerus -45.5076 10.9772 -88.2035
rradius 35.3137 0 0
rwrist -14.3418 0 0
rhand -32.141 -28.7322 0
rfingers 7.12502 0 0
rthumb -5.38477 -58.6406 0
456
root 10.8095 17.4233 27.9728 4.93284 1.49829 1.67348
lfemur -17.1976 3.62198 -27.7171
ltibia 26.59 0 0
lfoot -14.2904 4.57974 0
ltoes 1.23384 0 0
rfemur -23.219 -1.50288 18.073
rtibia 63.3791 0 0
rfoot -13.1572 -8.49426 0
rtoes -17.9555 0 0
lowerback -4.91501 -1.84885 -2.55412
upperback -1.30962 -2.36742 1.73994
thorax 1.58801 -1.19258 3.07333
lowerneck -21.25 -3.51563 -11.1893
upperneck 24.4488 -4.14257 10.4413
head 12.0308 -1.57248 5.16863
lclavicle -1.4033e-14 -1.56377e-14 0
lhumerus -22.4927 -15.076 89.1379
lradius 21.8182 0 0
lwrist -2.68825 0 0
lhand -12.4046 -23.9747 0
lfingers 7.12502 0 0
lthumb 13.667 5.55562 0
rclavicle -1.4033e-14 -1.56377e-14 0
rhumerus -45.4345 11.0815 -88.0945
rradius 35.6282 0 0
rwrist -14.8244 0 0
rhand -31.7259 -29.6513 0
rfingers 7.12502 0 0
rthumb -4.98402 -59.5708 0
457
root 10.8166 17.4157 28.0867 4.79162 1.70604 1.75197
lfemur -16.5693 3.59777 -27.7847
ltibia 26.5944 0 0
lfoot -14.7058 4.47352 0
ltoes 1.5269 0 0
rfemur -24.1651 -1.36515 18.0369
rtibia 63.0314 0 0
rfoot -14.3694 -8.55259 0
rtoes -17.6029 0 0
lowerback -4.84004 -2.06008 -2.69364
upperback -1.16171 -2.64446 1.79234
thorax 1.72272 -1.33488 3.18753
lowerneck -21.4521 -3.40652 -11.0627
upperneck 24.4881 -4.00395 10.4216
head 12.0632 -1.49618 5.16479
lclavicle -1.88597e-14 -1.82882e-14 0
lhumerus -21.4787 -15.8522 88.9576
lradius 22.0905 0 0
lwrist -2.24018 0 0
lhand -12.6778 -24.0634 0
lfingers 7.12502 0 0
lthumb 13.4038 5.48541 0
rclavicle -1.88597e-14 -1.82882e-14 0
rhumerus -45.3615 11.1858 -87.9854
rradius 35.9427 0 0
rwrist -15.3071 0 0
rhand -31.3108 -30.5705 0
rfingers 7.12502 0 0
rthumb -4.58327 -60.5009 0
458
root 10.8246 17.4113 28.2046 4.73759 1.9394 1.92199
lfemur -16.0267 3.4966 -27.944
ltibia 26.5679 0 0
lfoot -15.103 4.36171 0
ltoes 2.03828 0 0
rfemur -25.004 -1.28482 17.8019
rtibia 62.1243 0 0
rfoot -14.9159 -8.54092 0
rtoes -17.5926 0 0
lowerback -4.82151 -2.22654 -2.83724
upperback -1.11195 -2.85941 1.77829
thorax 1.78858 -1.44497 3.23739
lowerneck -21.446 -3.32786 -11.0086
upperneck 24.535 -3.8996 10.372
head 12.064 -1.45125 5.15519
lclavicle -1.28858e-14 -1.29873e-14 0
lhumerus -20.7658 -16.2531 88.682
lradius 22.5337 0 0
lwrist -1.68554 0 0
lhand -12.7926 -24.0526 0
lfingers 7.12502 0 0
lthumb 13.2931 5.50334 0
rclavicle -1.28858e-14 -1.29873e-14 0
rhumerus -45.5203 11.1002 -87.8333
rradius 36.2928 0 0
rwrist -15.7986 0 0
rhand -31.9152 -29.3024 0
rfingers 7.12502 0 0
rthumb -5.16678 -59.2152 0
459
root 10.8325 17.407 28.3226 4.68356 2.17276 2.092
lfemur -15.4841 3.39542 -28.1032
ltibia 26.5414 0 0
lfoot -15.5003 4.2499 0
ltoes 2.54966 0 0
rfemur -25.843 -1.2045 17.5668
rtibia 61.2172 0 0
rfoot -15.4624 -8.52925 0
rtoes -17.5822 0 0
lowerback -4.80297 -2.39301 -2.98084
upperback -1.06218 -3.07436 1.76423
thorax 1.85444 -1.55506 3.28724
lowerneck -21.4398 -3.2492 -10.9546
upperneck 24.582 -3.79525 10.3224
head 12.0647 -1.40632 5.14558
lclavicle -6.9119e-15 -7.68633e-15 0
lhumerus -20.0529 -16.6539 88.4064
lradius 22.9769 0 0
lwrist -1.13089 0 0
lhand -12.9075 -24.0417 0
lfingers 7.12502 0 0
lthumb 13.1824 5.52127 0
rclavicle -6.9119e-15 -7.68633e-15 0
rhumerus -45.6791 11.0145 -87.6812
rradius 36.6429 0 0
rwrist -16.2901 0 0
rhand -32.5196 -28.0342 0
rfingers 7.12502 0 0
rthumb -5.75028 -57.9296 0
460
root 10.8404 17.4027 28.4405 4.62954 2.40612 2.26201
lfemur -14.9415 3.29425 -28.2625
ltibia 26.5149 0 0
lfoot -15.8976 4.13809 0
ltoes 3.06104 0 0
rfemur -26.6819 -1.12417 17.3318
rtibia 60.3101 0 0
rfoot -16.0088 -8.51758 0
rtoes -17.5719 0 0
lowerback -4.78444 -2.55947 -3.12444
upperback -1.01242 -3.28931 1.75018
thorax 1.92029 -1.66515 3.3371
lowerneck -21.4337 -3.17054 -10.9005
upperneck 24.6289 -3.6909 10.2728
head 12.0655 -1.36139 5.13598
lclavicle -9.38e-16 -2.3854e-15 0
lhumerus -19.34 -17.0547 88.1308
lradius 23.4201 0 0
lwrist -0.57625 0 0
lhand -13.0223 -24.0309 0
lfingers 7.12502 0 0
lthumb 13.0716 5.5392 0
rclavicle -9.38e-16 -2.3854e-15 0
rhumerus -45.8379 10.9289 -87.529
rradius 36.993 0 0
rwrist -16.7816 0 0
rhand -33.124 -26.766 0
rfingers 7.12502 0 0
rthumb -6.33379 -56.644 0
461
root 10.8484 17.3983 28.5585 4.57551 2.63948 2.43203
lfemur -14.399 3.19308 -28.4218
ltibia 26.4883 0 0
lfoot -16.2948 4.02627 0
ltoes 3.57241 0 0
rfemur -27.5208 -1.04385 17.0968
rtibia 59.4029 0 0
rfoot -16.5553 -8.50591 0
rtoes -17.5615 0 0
lowerback -4.7659 -2.72593 -3.26804
upperback -0.962655 -3.50426 1.73612
thorax 1.98615 -1.77524 3.38695
lowerneck -21.4276 -3.09187 -10.8464
upperneck 24.6759 -3.58655 10.2232
head 12.0663 -1.31645 5.12638
lclavicle 5.0359e-15 2.91553e-15 0
lhumerus -18.6272 -17.4556 87.8551
lradius 23.8634 0 0
lwrist -0.0216067 0 0
lhand -13.1372 -24.0201 0
lfingers 7.12502 0 0
lthumb 12.9609 5.55713 0
rclavicle 5.0359e-15 2.91553e-15 0
rhumerus -45.9967 10.8433 -87.3769
rradius 37.343 0 0
rwrist -17.2731 0 0
rhand -33.7285 -25.4979 0
rfingers 7.12502 0 0
rthumb -6.91729 -55.3583 0
462
root 10.8564 17.394 28.6764 4.52148 2.87284 2.60205
lfemur -13.8564 3.0919 -28.581
ltibia 26.4618 0 0
lfoot -16.6921 3.91446 0
ltoes 4.08379 0 0
rfemur -28.3598 -0.963524 16.8617
rtibia 58.4958 0 0
rfoot -17.1018 -8.49424 0
rtoes -17.5511 0 0
lowerback -4.74737 -2.8924 -3.41164
upperback -0.912892 -3.71921 1.72206
thorax 2.05201 -1.88533 3.43681
lowerneck -21.4214 -3.01321 -10.7924
upperneck 24.7229 -3.4822 10.1736
head 12.067 -1.27152 5.11677
lclavicle 1.10098e-14 8.21647e-15 0
lhumerus -17.9143 -17.8565 87.5795
lradius 24.3066 0 0
lwrist 0.533037 0 0
lhand -13.2521 -24.0092 0
lfingers 7.12502 0 0
lthumb 12.8502 5.57506 0
rclavicle 1.10098e-14 8.21647e-15 0
rhumerus -46.1555 10.7576 -87.2248
rradius 37.6931 0 0
rwrist -17.7646 0 0
rhand -34.3329 -24.2297 0
rfingers 7.12502 0 0
rthumb -7.5008 -54.0727 0
